<?xml version="1.0" encoding="UTF-8" standalone="no"?>
<!-- Created with Inkscape (http://www.inkscape.org/) -->

<svg
   width="142.29167mm"
   height="91.124321mm"
   viewBox="0 0 142.29167 91.124319"
   version="1.1"
   id="svg5"
   sodipodi:docname="3gpp-logo.svg"
   inkscape:version="1.1 (c68e22c387, 2021-05-23)"
   xmlns:inkscape="http://www.inkscape.org/namespaces/inkscape"
   xmlns:sodipodi="http://sodipodi.sourceforge.net/DTD/sodipodi-0.dtd"
   xmlns="http://www.w3.org/2000/svg"
   xmlns:svg="http://www.w3.org/2000/svg">
  <sodipodi:namedview
     id="namedview7"
     pagecolor="#ffffff"
     bordercolor="#666666"
     borderopacity="1.0"
     inkscape:pageshadow="2"
     inkscape:pageopacity="0.0"
     inkscape:pagecheckerboard="0"
     inkscape:document-units="mm"
     showgrid="false"
     fit-margin-top="5"
     lock-margins="true"
     inkscape:zoom="0.72337262"
     inkscape:cx="332.47042"
     inkscape:cy="510.80175"
     inkscape:window-width="2400"
     inkscape:window-height="1271"
     inkscape:window-x="2391"
     inkscape:window-y="-9"
     inkscape:window-maximized="1"
     inkscape:current-layer="layer1"
     fit-margin-left="5"
     fit-margin-right="5"
     fit-margin-bottom="5" />
  <defs
     id="defs2">
    <clipPath
       clipPathUnits="userSpaceOnUse"
       id="clipPath956">
      <path
         d="M -0.138,841.945 H 595.138 V 0.055 H -0.138 Z m 595.276,0 z"
         id="path954" />
    </clipPath>
    <clipPath
       clipPathUnits="userSpaceOnUse"
       id="clipPath962">
      <path
         d="M 0,842.04 H 594.96 V 0 H 0 Z"
         id="path960" />
    </clipPath>
  </defs>
  <g
     inkscape:label="Layer 1"
     inkscape:groupmode="layer"
     id="layer1"
     transform="translate(-168.05334,-418.34111)">
    <path
       d="m 173.05334,423.34111 v 0"
       style="fill:#ffffff;fill-opacity:1;fill-rule:nonzero;stroke:none;stroke-width:0.16705"
       id="path948" />
    <path
       d="m 201.27031,430.28155 c 5.43248,0 10.29899,0.59503 13.86969,4.1664 1.83571,1.83505 2.5567,3.68229 2.5567,6.45165 0,0.30153 -0.16304,0.80853 0.21216,0.80853 0,-0.0692 0,-0.13247 0,-0.2003 3.13871,-2.14292 6.8529,-4.41046 11.02599,-4.41046 0.58918,-0.26294 1.5093,-0.19445 2.20423,-0.19445 5.95768,0 10.79496,2.7256 15.43645,5.39456 0.37002,0.21265 1.80364,0.77645 1.80364,1.21429 0.0692,0 0.13899,0 0.20096,0 0,0.2631 0.062,0.20046 -0.20096,0.20046 -0.45671,0.83909 -1.94714,3.94706 -2.75633,4.3099 -0.91359,0.40726 -5.1251,-0.28766 -6.27674,-0.43851 -7.12253,-0.93966 -13.41749,0.33878 -18.16673,4.8047 -3.37692,3.1636 -7.65558,9.94868 -5.71295,14.99076 0.65767,1.71694 1.74083,2.98218 3.09494,4.33546 1.97203,1.9727 4.57885,3.06905 7.56621,3.06905 1.02117,-0.63312 2.09915,-0.69443 3.00824,-1.59683 1.90337,-1.91123 2.46783,-5.52503 2.3798,-8.42619 -0.0196,-0.53774 0.0312,-1.29665 -0.32625,-1.65296 -1.52834,-1.52885 -5.98191,-0.87117 -5.6002,-3.75279 0.16973,-1.32855 0.93315,-3.1955 2.24934,-3.78987 1.22681,-0.5638 3.4389,-0.22585 4.90393,-0.22585 5.01151,0 10.02352,0 15.03502,0 -0.0488,1.48458 -0.0488,2.85038 -0.27529,4.19062 -0.65116,3.75346 -1.78527,7.34236 -2.90568,10.85042 -0.45237,1.39053 -0.89087,3.10681 -1.77958,4.27816 -0.34446,0.43851 -0.68909,0.57683 -1.23985,0.67722 -3.28939,0.57566 -1.73632,-6.05156 -4.98144,-4.28517 -1.25288,0.67672 -1.8728,2.62519 -2.61801,3.7456 -2.60682,3.89628 -7.33652,6.55856 -12.2468,5.71429 -4.04061,-0.70278 -8.91514,-4.14819 -11.2074,-7.7503 -0.13832,-0.21266 -0.12529,-0.38171 -0.432,-0.38171 -0.86465,0.24406 -1.52901,0.83258 -2.26754,1.29731 -1.26607,0.67606 -2.52546,1.35328 -3.79004,2.02282 -5.88267,2.78773 -17.59056,6.79694 -23.8608,2.56188 -1.5412,-1.03889 -3.32079,-2.6115 -3.64637,-4.50317 -0.28181,-1.61705 0.31322,-2.85089 1.48458,-3.77818 2.4999,-1.99224 6.50844,-1.54655 9.20931,-0.19445 2.34906,1.17253 2.38631,2.3935 5.63077,2.3935 0.40126,-0.0685 0.80251,-0.13114 1.20393,-0.20096 1.7273,-0.5501 3.46296,-1.1022 5.19226,-1.65297 3.57788,-1.37232 8.0119,-4.94368 4.44705,-8.99649 -2.00327,-2.27941 -5.20529,-3.31294 -8.05567,-3.92769 -2.06007,-0.45087 -4.38441,-0.42548 -5.88201,-1.9727 -1.95432,-2.01696 -0.0189,-4.8052 1.96752,-5.73834 0.73201,-0.35047 1.60969,-0.36284 2.52981,-0.36284 1.12241,-0.37068 2.24282,-0.74003 3.35871,-1.10938 2.56122,-1.05242 10.55474,-4.41046 9.7098,-8.28135 -0.20697,-0.9455 -1.31619,-1.86629 -2.12404,-2.31198 -1.40306,-0.77645 -3.74043,-1.34024 -5.2367,-0.38171 -0.94617,0.60105 -1.36513,1.54071 -2.01763,2.36811 -1.37232,1.70374 -3.9773,2.6115 -5.93229,1.34626 -5.34945,-3.47031 0.89606,-9.87301 5.45068,-9.87301 0.53189,-0.0678 1.07013,-0.13114 1.60402,-0.19963 0.73218,-0.20046 1.47138,-0.40142 2.20356,-0.60171"
       style="fill:#231f20;fill-opacity:1;fill-rule:nonzero;stroke:none;stroke-width:0.16705"
       id="path966" />
    <path
       d="m 210.69295,448.9247 c -1.04072,0.75757 -6.01448,2.49924 -6.01448,3.60845 0.0687,0 0.13849,0 0.20046,0 1.07213,0.46991 2.14226,0.93966 3.2072,1.40306 0,0.2636 -0.0685,0.20029 0.20097,0.20029 0.63946,-1.31552 1.27709,-2.63104 1.91005,-3.94723 0.19444,-0.32491 0.69693,-0.85095 0.69693,-1.26457 -0.0705,0 -0.13247,0 -0.20113,0"
       style="fill:#231f20;fill-opacity:1;fill-rule:nonzero;stroke:none;stroke-width:0.16705"
       id="path968" />
    <path
       d="m 235.96466,477.97241 c 2.09782,0.50182 3.92167,1.0023 6.41507,1.0023 0.68775,-0.3503 1.93411,-0.20029 2.80594,-0.20029 0,0.0692 0,0.13765 0,0.20029 -0.0692,0 -0.13046,0 -0.20096,0 -2.66763,1.51649 -7.06573,1.79195 -9.02005,-1.0023"
       style="fill:#ed1c24;fill-opacity:1;fill-rule:nonzero;stroke:none;stroke-width:0.16705"
       id="path970" />
    <path
       d="m 234.16035,481.38007 c 2.1045,0.57683 3.9459,1.40356 6.4144,1.40356 0.48294,-0.24406 1.38535,-0.20029 2.00527,-0.20029 0.53189,-0.0692 1.07012,-0.13114 1.60335,-0.2003 0.46974,-0.1318 0.93966,-0.2631 1.40289,-0.40075 0,0.27546 0.0999,0.40075 -0.20029,0.40075 -2.90702,2.12338 -9.20932,2.69953 -11.22562,-1.00297"
       style="fill:#ed1c24;fill-opacity:1;fill-rule:nonzero;stroke:none;stroke-width:0.16705"
       id="path972" />
    <path
       d="m 232.35604,485.38995 c 1.65413,0.53172 3.05719,1.30249 4.83527,1.67885 1.58581,0.33227 3.264,0.12479 4.98746,0.12479 0.58851,-0.32575 1.45383,-0.40075 2.20556,-0.40075 0.80134,-0.2003 1.60402,-0.40126 2.40469,-0.60105 0,0.1313 0,0.26962 0,0.40075 -1.35278,0.63296 -2.6997,1.26524 -4.0523,1.8982 -3.55834,1.27125 -8.51439,0.20029 -10.38068,-3.10079"
       style="fill:#ed1c24;fill-opacity:1;fill-rule:nonzero;stroke:none;stroke-width:0.16705"
       id="path974" />
    <path
       d="m 297.73603,436.04479 c -1.47806,-1.47857 -3.06822,-2.89399 -4.91044,-3.64571 -2.35558,-0.97106 -4.87437,-1.11523 -7.76183,-1.11523 -0.66436,0.13765 -1.33457,0.26878 -2.00461,0.40125 -1.35928,0 -2.61867,0.45104 -3.82127,0.75758 -4.00269,1.01483 -7.86122,2.5248 -11.45665,4.37338 -0.92212,0.49397 -1.84223,0.98927 -2.76351,1.48391 -0.56914,0 1.43429,3.03229 0.89522,3.54597 -0.65066,0.60806 -4.20232,-0.29434 -5.30518,0.26294 -1.09619,0 -2.48738,-0.16906 -3.4075,0.20029 -0.60171,0.0685 -1.20209,0.1318 -1.8043,0.20096 -0.53307,0.0685 -1.07213,0.13114 -1.60335,0.1998 -0.46324,0.069 -0.93315,0.13163 -1.40289,0.20096 -0.4634,0.0692 -0.93315,0.13113 -1.40306,0.20029 -0.35231,0 -0.30202,0.29418 -0.33276,0.6074 -0.20748,1.77891 0.218,3.8338 0.3067,5.60737 0.22452,3.60795 0.44503,7.2099 0.67021,10.81852 0.11292,1.24636 0.48946,3.13219 0.1435,4.353 -0.0932,0.31322 -0.36217,0.43199 -0.58919,0.66502 -0.6637,0.0678 -1.33373,0.13114 -2.00327,0.19963 0,0.35698 1.12107,0.60756 1.42778,0.74003 0.64598,0.28115 1.61688,0.53773 2.04236,1.15749 0.60689,0.89021 0.60171,2.39367 0.80133,3.50221 0.49598,2.88162 0.98343,5.75672 1.4794,8.63901 0.23805,1.34626 0.26294,3.00039 0.86449,4.20299 0,0.31321 0.86465,0.10641 1.16484,0.0437 0.41312,-0.0939 0.75891,-0.26878 0.87635,-0.68908 0.25057,-0.92078 0.0503,-2.02933 -0.005,-2.96898 -0.13181,-1.86696 -0.26896,-3.73976 -0.40143,-5.61256 -0.11276,-1.79262 0.10641,-3.97847 -0.43249,-5.60721 0,-0.1313 0,-0.26895 0,-0.40075 1.47205,0.33209 2.93825,0.65784 4.40979,0.98342 5.11926,0.92078 11.07043,2.03584 16.00025,-0.0568 0.30019,-0.13113 1.08984,-0.54425 1.45384,-0.34396 0.80719,0.43918 1.82202,3.09511 2.26704,3.98382 1.77875,3.42654 3.55834,6.84773 5.33642,10.26775 0.7387,-0.20029 1.47338,-0.40126 2.20557,-0.60105 0,-0.98392 -0.75173,-1.98623 -1.10922,-2.85672 -0.72566,-1.76005 -5.82588,-12.56603 -5.43047,-13.55664 0.59504,-1.07079 1.18372,-2.14159 1.7729,-3.21372 0.29368,-0.98342 0.58268,-1.97319 0.87635,-2.95662 0.0503,-0.0561 0.094,-0.11944 0.13832,-0.18075 0.6819,-0.62643 3.27586,-0.76475 4.32761,-0.99061 4.36101,-0.94617 8.63316,-2.64991 11.34522,-6.39551 4.22838,-5.86448 1.74868,-11.80261 -2.8569,-16.40685 z m -20.92172,29.7251 c -1.25939,1.51531 -3.67126,1.92893 -5.38219,2.19854 -0.46323,0.0692 -0.93314,0.13114 -1.40289,0.2003 -5.82588,0 -10.00348,-0.7524 -14.83357,-2.60632 0,-2.31131 -1.06561,-17.97879 -0.24539,-18.66721 1.17853,-1.00881 3.62165,-0.45805 5.05594,-0.97741 2.04887,0 6.45232,-0.41378 7.912,0.54476 0.61993,0.40726 5.02454,11.27589 4.81122,11.98402 -0.21282,0.66937 -1.5225,1.09618 -2.09865,1.30249 0,0.31974 1.92893,0.38889 2.39884,0.42013 0.6525,0.0379 1.22147,0.0999 1.67952,0.52604 0.59387,0.55728 2.66763,4.38507 2.10517,5.07466 z m -4.37855,-18.44921 c 4.20883,1.35344 7.8415,4.30355 8.8824,8.80155 0.0815,0.35682 0.33794,1.47205 -0.064,1.73565 -0.6069,0.38823 -4.37204,0.45087 -4.83528,-0.075 -0.77661,-0.87769 -1.06494,-2.34322 -1.46636,-3.41468 -0.83843,-2.34923 -1.67903,-4.69829 -2.51678,-7.04752 z m 7.11266,16.6195 -2.22911,-3.61964 c 0,0 2.64473,0 4.59388,-0.13899 0,0 0,3.48 -2.36477,3.75863 z m 5.92311,-6.37129 c -0.31973,0.0443 -0.68975,-0.0561 -0.83976,-0.32559 -0.35114,-1.08983 -0.7088,-2.18602 -1.06562,-3.27652 -0.96388,-2.67465 -2.44895,-5.86297 -4.8047,-7.7488 -1.57261,-1.25822 -3.27569,-2.16063 -5.17472,-2.79358 -0.84427,-0.28265 -1.90988,-0.41378 -2.65576,-0.88353 -0.40059,-0.24991 -0.63947,-0.83274 -0.72567,-1.28361 -0.0508,-0.26361 -0.1318,-0.52588 0.005,-0.73352 0.82205,-1.30884 7.90683,-3.771 9.65367,-4.18395 1.66583,-0.34529 3.33316,-0.69626 4.99832,-1.04673 2.70036,0 5.13746,0.0815 7.39866,0.85229 2.69368,0.9141 4.9801,2.76284 6.29562,5.32473 4.37989,8.53844 -6.05107,15.11605 -13.08539,16.09881"
       style="fill:#231f20;fill-opacity:1;fill-rule:nonzero;stroke:none;stroke-width:0.16705"
       id="path976" />
    <path
       d="m 292.89291,479.59932 v 0.3523 h -1.01149 v 2.64274 h -0.4046 v -2.64274 h -1.01132 v -0.3523 h 2.42741"
       style="fill:#231f20;fill-opacity:1;fill-rule:nonzero;stroke:none;stroke-width:0.16705"
       id="path978" />
    <path
       d="m 293.26476,479.59932 h 0.57682 l 0.86148,2.53181 0.85681,-2.53181 h 0.56964 v 2.99504 h -0.37854 v -1.7684 c 0,-0.0606 10e-4,-0.1617 0.007,-0.30269 0.003,-0.14233 0.007,-0.293 0.007,-0.45554 l -0.86332,2.52663 h -0.40125 l -0.86265,-2.52663 v 0.092 c 0,0.0738 0.001,0.18526 0.007,0.33544 0.003,0.15001 0.007,0.26093 0.007,0.33075 v 1.7684 h -0.38505 v -2.99504"
       style="fill:#231f20;fill-opacity:1;fill-rule:nonzero;stroke:none;stroke-width:0.16705"
       id="path980" />
    <path
       d="m 176.45331,503.88593 2.72693,-4.7145 h 0.0169 l 2.88045,4.78566 -1.01416,0.50834 -0.70529,-1.28345 h -2.26236 l -0.68792,1.28345 z m 2.08997,-1.55958 h 1.32471 l -0.67989,-1.37032 -0.64482,1.37032"
       style="fill:#231f20;fill-opacity:1;fill-rule:nonzero;stroke:none;stroke-width:0.16705"
       id="path982" />
    <path
       d="m 220.40643,503.88593 2.72692,-4.7145 h 0.017 l 2.88028,4.78566 -1.01399,0.50834 -0.70546,-1.28345 h -2.26303 l -0.68775,1.28345 z m 2.0908,-1.55958 h 1.32454 l -0.68123,-1.37032 -0.64331,1.37032"
       style="fill:#231f20;fill-opacity:1;fill-rule:nonzero;stroke:none;stroke-width:0.16705"
       id="path984" />
    <path
       d="m 272.67681,503.88593 2.72693,-4.7145 h 0.017 l 2.88028,4.78566 -1.01332,0.50834 -0.70546,-1.28345 h -2.26169 l -0.68908,1.28345 z m 2.09014,-1.55958 h 1.3247 l -0.67939,-1.37032 -0.64531,1.37032"
       style="fill:#231f20;fill-opacity:1;fill-rule:nonzero;stroke:none;stroke-width:0.16705"
       id="path986" />
    <path
       d="m 198.06612,504.34665 v -5.05778 l 1.25154,-0.11744 v 4.23958 h 1.84273 l -0.24272,0.93564 h -2.85155"
       style="fill:#231f20;fill-opacity:1;fill-rule:nonzero;stroke:none;stroke-width:0.16705"
       id="path988" />
    <path
       d="m 229.24957,504.34665 v -5.05778 l 1.25104,-0.11744 v 4.23958 h 1.8434 l -0.24272,0.93564 h -2.85172"
       style="fill:#231f20;fill-opacity:1;fill-rule:nonzero;stroke:none;stroke-width:0.16705"
       id="path990" />
    <path
       d="m 207.04374,499.17143 c 1.58363,0 2.89464,1.17904 2.89464,2.64658 0,1.46771 -1.31101,2.64742 -2.89464,2.64742 -1.58314,0 -2.89465,-1.17971 -2.89465,-2.64742 0,-1.46754 1.31151,-2.64658 2.89465,-2.64658 z m 0,4.29821 c 0.9004,0 1.65146,-0.75173 1.65146,-1.65163 0,-0.89973 -0.75106,-1.65146 -1.65146,-1.65146 -0.89923,0 -1.65096,0.75173 -1.65096,1.65146 0,0.8999 0.75173,1.65163 1.65096,1.65163"
       style="fill:#231f20;fill-opacity:1;fill-rule:nonzero;stroke:none;stroke-width:0.16705"
       id="path992" />
    <path
       d="m 213.35507,499.28887 h 0.86465 c 1.41926,-0.0229 2.47635,0.4502 2.59513,1.15883 0.077,0.45872 -0.31122,1.01734 -0.8959,1.26657 0.57148,-0.24406 1.17387,0.46206 1.17387,1.0728 0,0.76676 -1.30968,1.59483 -2.75901,1.55958 h -0.97874 z m 1.04723,2.07176 h 0.39808 c 0.41179,0 0.75441,-0.44703 0.75441,-0.7706 0,-0.32425 -0.62377,-0.36484 -0.83927,-0.36484 h -0.31322 z m 0,2.05038 h 0.27413 c 0.71448,0 1.06829,-0.36551 1.06829,-0.80068 0,-0.23754 -0.38639,-0.46791 -1.01667,-0.46791 h -0.32575 v 1.26859"
       style="fill:#231f20;fill-opacity:1;fill-rule:nonzero;stroke:none;stroke-width:0.16705"
       id="path994" />
    <path
       d="m 245.89196,504.46543 v -5.294 h 0.0262 l 3.47014,3.0597 v -2.94226 l 1.11723,-0.11744 v 5.294 h -0.0262 l -3.46947,-3.02328 v 2.9045 l -1.1179,0.11878"
       style="fill:#231f20;fill-opacity:1;fill-rule:nonzero;stroke:none;stroke-width:0.16705"
       id="path996" />
    <path
       d="m 240.40553,504.40679 v -5.17672 h 1.11322 v 5.11658 l -1.11322,0.0601"
       style="fill:#231f20;fill-opacity:1;fill-rule:nonzero;stroke:none;stroke-width:0.16705"
       id="path998" />
    <path
       d="m 254.88345,504.40679 v -5.17672 h 1.11389 v 5.11658 l -1.11389,0.0601"
       style="fill:#231f20;fill-opacity:1;fill-rule:nonzero;stroke:none;stroke-width:0.16705"
       id="path1000" />
    <path
       d="m 267.82984,504.40679 v -5.17672 h 1.11389 v 5.11658 l -1.11389,0.0601"
       style="fill:#231f20;fill-opacity:1;fill-rule:nonzero;stroke:none;stroke-width:0.16705"
       id="path1002" />
    <path
       d="m 288.71113,504.40679 v -5.17672 h 1.1139 v 5.11658 l -1.1139,0.0601"
       style="fill:#231f20;fill-opacity:1;fill-rule:nonzero;stroke:none;stroke-width:0.16705"
       id="path1004" />
    <path
       d="m 280.72012,499.28887 h 4.2389 v 0.93632 h -1.5798 v 4.12146 l -0.9724,0.0601 v -4.1816 h -1.6867 v -0.93632"
       style="fill:#231f20;fill-opacity:1;fill-rule:nonzero;stroke:none;stroke-width:0.16705"
       id="path1006" />
    <path
       d="m 259.87792,499.28887 h 4.23956 v 0.93632 h -1.58046 v 4.12146 l -0.97223,0.0601 v -4.1816 h -1.68687 v -0.93632"
       style="fill:#231f20;fill-opacity:1;fill-rule:nonzero;stroke:none;stroke-width:0.16705"
       id="path1008" />
    <path
       d="m 296.12466,502.34923 1.6117,-3.1778 1.0885,0.42615 -2.69184,4.86785 h -0.0175 l -2.60816,-4.83277 1.15749,-0.46123 1.45985,3.1778"
       style="fill:#231f20;fill-opacity:1;fill-rule:nonzero;stroke:none;stroke-width:0.16705"
       id="path1010" />
    <path
       d="m 302.46072,504.34665 v -5.05778 h 2.88429 v 0.93632 h -1.91006 v 1.01082 h 1.53353 v 0.93648 h -1.53353 v 1.23852 h 1.91006 v 0.93564 h -2.88429"
       style="fill:#231f20;fill-opacity:1;fill-rule:nonzero;stroke:none;stroke-width:0.16705"
       id="path1012" />
    <path
       d="m 193.08852,499.06886 0.28449,1.01601 c -2.31599,0.37786 -2.97751,2.15027 -1.98573,2.95345 0.47309,0.33159 1.41859,0.28381 1.41859,0.28381 v -1.37031 h 1.13477 v 2.26821 c -1.04005,0.0478 -2.40786,0.16972 -3.26199,-0.42531 -0.77979,-0.54291 -1.65413,-1.6543 -0.28315,-3.30843 0.75624,-0.89723 2.69302,-1.41743 2.69302,-1.41743"
       style="fill:#231f20;fill-opacity:1;fill-rule:nonzero;stroke:none;stroke-width:0.16705"
       id="path1014" />
  </g>
</svg>
