<?xml version="1.0" encoding="UTF-8" standalone="no"?>
<!-- Created with Inkscape (http://www.inkscape.org/) -->

<svg
   width="73.500191mm"
   height="48.301067mm"
   viewBox="0 0 73.500191 48.301067"
   version="1.1"
   id="svg5"
   xmlns="http://www.w3.org/2000/svg"
   xmlns:svg="http://www.w3.org/2000/svg">
  <defs
     id="defs2" />
  <g
     id="layer1"
     transform="translate(-67.126756,-54.122867)">
    <g
       id="surface1"
       transform="matrix(0.35277778,0,0,0.35277778,-4.0730558,-61.426536)">
      <path
         style="fill:#000000;fill-opacity:1;fill-rule:evenodd;stroke:none"
         d="m 234.26562,377.89453 45.1875,0.0273 -2.59375,14.75782 -31.71875,0.0273 -4.94921,12.76563 -0.125,0.39453 c 3.93359,-3.25782 8.96484,-5.25391 15.09375,-5.25391 18.15625,0 24.37109,12.27344 18.30078,29.68359 -3.1836,9.12891 -12.94141,19.96485 -32.69922,19.96485 -20.73438,0 -26.29688,-10.63281 -24.42188,-23.04297 h 17.37891 c -0.96484,4.95703 3.82031,8.91406 10.19141,8.91406 5.05078,0 10.83593,-3.18359 12.88281,-9.05469 2.76172,-7.91796 -0.30469,-14.1914 -8.72656,-14.1914 -4.13672,0 -8.71875,1.16797 -11.9961,5.40625 h -15.89062 l 14.08593,-40.39844"
         id="path881" />
      <path
         style="fill:#000000;fill-opacity:1;fill-rule:evenodd;stroke:none"
         d="m 313.37891,443.84766 -0.39844,5.16796 10.74609,-0.0117 5.32422,-30.28907 -22.54297,-0.008 -2.07031,11.77734 7.45312,-0.008 c -1.45312,4.16016 -5.72265,6.06641 -10.1914,6.06641 -8.16406,0 -10.8086,-6.64063 -9.33203,-15.03906 1.48437,-8.4336 5.69531,-15.01954 13.58593,-15.01954 4.40235,0 6.875,2.53516 7.14454,6.79688 h 16.21875 c 0.21875,-10.94922 -5.6875,-20.31641 -21.35547,-20.71484 -8.91407,0.21875 -17.32422,3.92187 -23.33203,10.1875 -4.83204,5.03906 -8.25,11.51953 -9.47657,18.48437 -2.66406,15.16016 4.03516,29.04688 21.38672,29.04688 7.22656,0 11.67188,-2.19532 16.83985,-6.4375"
         id="path883" />
      <path
         style="fill:#178f42;fill-opacity:1;fill-rule:evenodd;stroke:none"
         d="m 284.88672,391.51172 c 5.99609,-6.1836 19.85547,-16.53125 33.91797,-16.53125 12.40625,0.043 21.22656,6.3164 26.57422,10.30469 l -10.41797,7 c -3.82032,-3.57422 -13.47657,-10.47266 -26.03516,-10.47266 -9.8125,0 -18.70312,5 -24.03906,9.69922"
         id="path885" />
      <path
         style="fill:#178f42;fill-opacity:1;fill-rule:evenodd;stroke:none"
         d="m 288.69141,383.06641 c 10.78906,-11.98829 26.30468,-22.51954 44.28515,-22.51954 14.98047,0 26.35156,6.64844 33.10547,11.50391 l -15.01172,10.46094 c -5.20312,-4.65235 -18.34765,-12.72266 -32.24609,-12.72266 -12.22266,0 -22.95703,6.30469 -30.13281,13.27735"
         id="path887" />
      <path
         style="fill:#178f42;fill-opacity:1;fill-rule:evenodd;stroke:none"
         d="m 290.51172,376.51172 c 15.52344,-21.84766 39.80078,-34.79688 64.23047,-34.79688 18.26172,0 32.08203,6.19532 41.25781,12.79297 l -22.96875,14.88281 c -9.09375,-6.67968 -22.10547,-13.78515 -39.54297,-13.78515 -17.03906,0 -31.56641,8.76172 -42.97656,20.90625"
         id="path889" />
    </g>
  </g>
</svg>
